<?xml version="1.0" encoding="UTF-8"?><svg id="a" xmlns="http://www.w3.org/2000/svg" width="2.478in" height="2.478in" xmlns:xlink="http://www.w3.org/1999/xlink" viewBox="0 0 178.444 178.444"><defs><linearGradient id="b" x1="173.665" y1="173.666" x2="4.778" y2="4.779" gradientUnits="userSpaceOnUse"><stop offset="0" stop-color="#000"/><stop offset=".509" stop-color="#fff"/><stop offset="1" stop-color="#231f20"/></linearGradient></defs><path d="M162.147,178.444H16.296c-8.986,0-16.296-7.311-16.296-16.297V16.297C0,7.311,7.311,0,16.296,0h145.851c8.986,0,16.297,7.311,16.297,16.297v145.851c0,8.986-7.311,16.297-16.297,16.297ZM16.296,4.086c-6.733,0-12.211,5.478-12.211,12.211v145.851c0,6.733,5.478,12.211,12.211,12.211h145.851c6.733,0,12.211-5.478,12.211-12.211V16.297c0-6.733-5.478-12.211-12.211-12.211H16.296Z" fill="url(#b)"/></svg>